<?xml version="1.0" encoding="UTF-8" standalone="no"?>
<!-- Created with Inkscape (http://www.inkscape.org/) -->
<svg
   xmlns:svg="http://www.w3.org/2000/svg"
   xmlns="http://www.w3.org/2000/svg"
   xmlns:xlink="http://www.w3.org/1999/xlink"
   version="1.0"
   width="600"
   height="450"
   id="svg2">
  <defs
     id="defs5">
    <linearGradient
       id="linearGradient5120">
      <stop
         style="stop-color:#ffc579;stop-opacity:1"
         offset="0"
         id="stop5122" />
      <stop
         style="stop-color:#ffc579;stop-opacity:1"
         offset="0.5"
         id="stop2281" />
      <stop
         style="stop-color:#ffc579;stop-opacity:1"
         offset="0.75"
         id="stop2283" />
      <stop
         style="stop-color:#ff9159;stop-opacity:1"
         offset="0.875"
         id="stop2285" />
      <stop
         style="stop-color:#ff9159;stop-opacity:1"
         offset="0.9375"
         id="stop2287" />
      <stop
         style="stop-color:#ff9159;stop-opacity:1"
         offset="1"
         id="stop5124" />
    </linearGradient>
    <linearGradient
       id="linearGradient4110">
      <stop
         style="stop-color:#ffffff;stop-opacity:1"
         offset="0"
         id="stop4112" />
      <stop
         style="stop-color:#ffffff;stop-opacity:1"
         offset="0.58300382"
         id="stop2286" />
      <stop
         style="stop-color:#c7c7c7;stop-opacity:1"
         offset="0.75"
         id="stop2288" />
      <stop
         style="stop-color:#c7c7c7;stop-opacity:1"
         offset="0.875"
         id="stop2290" />
      <stop
         style="stop-color:#a6a6a6;stop-opacity:1"
         offset="0.9375"
         id="stop2292" />
      <stop
         style="stop-color:#aeaeae;stop-opacity:1"
         offset="1"
         id="stop4114" />
    </linearGradient>
    <radialGradient
       cx="142.08304"
       cy="332.78058"
       r="69.898346"
       fx="142.08304"
       fy="332.78058"
       id="radialGradient2402"
       xlink:href="#linearGradient5120"
       gradientUnits="userSpaceOnUse"
       gradientTransform="matrix(5.0590088,-0.1956776,-9.7751326e-2,5.397333,-372.34392,-1318.9742)" />
    <radialGradient
       cx="123.87614"
       cy="324.62442"
       r="69.898346"
       fx="123.87614"
       fy="324.62442"
       id="radialGradient2404"
       xlink:href="#linearGradient4110"
       gradientUnits="userSpaceOnUse"
       gradientTransform="matrix(3.0721479,1.0301316e-6,0,2.859397,-75.861247,-473.66326)" />
  </defs>
  <path
     d="M -75.017327,452.79198 C -75.587887,317.78157 -4.6241574,192.77869 111.02476,125.07825 C 226.67362,57.377816 369.34536,57.31925 485.05996,124.92463 C 600.77462,192.53009 671.85985,317.47464 671.4205,452.48543 L 298.20086,451.21185 L -75.017327,452.79198 z "
     style="fill:url(#radialGradient2402);fill-opacity:1;fill-rule:evenodd;stroke:#000000;stroke-width:4;stroke-linecap:square;stroke-linejoin:miter;stroke-miterlimit:4;stroke-dasharray:none;stroke-dashoffset:0;stroke-opacity:1"
     id="path4147" />
  <path
     d="M 299.1112,68.687599 C 124.14538,82.18962 63.464897,148.93273 63.456867,147.0363 C 53.219934,169.50298 51.288511,194.8668 50.652046,219.19737 C 50.669347,223.28367 50.792204,226.10744 54.618381,227.04678 C 58.878005,228.09255 62.490934,222.29243 63.106643,219.14464 C 67.967268,203.19546 66.965229,175.9773 72.694995,161.41856 C 190.99044,78.021706 286.08829,89.33586 286.08436,88.408258 C 295.57011,85.422498 300.33126,78.44837 299.1112,68.687599 z "
     style="fill:#b0b09c;fill-opacity:1;fill-rule:evenodd;stroke:#000000;stroke-width:2.0734992px;stroke-linecap:butt;stroke-linejoin:miter;stroke-opacity:1"
     id="path5140" />
  <path
     d="M 91.936385,451.31826 C 91.643814,382.07373 132.12638,317.94458 198.06753,283.19413 C 264.00864,248.44367 345.33756,248.37911 411.28341,283.02482 C 477.22928,317.67057 517.72062,381.73542 517.4375,450.9804 L 304.68687,450.41751 L 91.936385,451.31826 z "
     style="fill:url(#radialGradient2404);fill-opacity:1;fill-rule:evenodd;stroke:#000000;stroke-width:3.99999976;stroke-linecap:square;stroke-linejoin:miter;stroke-miterlimit:4;stroke-dasharray:none;stroke-dashoffset:0;stroke-opacity:1"
     id="path3138" />
  <path
     d="M 395.74835,449.4266 C 395.54379,401.10981 354.30191,362.11522 303.63206,362.32975 C 252.96219,362.54427 212.05198,401.88668 212.25654,450.20347"
     style="fill:#ffffff;fill-opacity:1;fill-rule:evenodd;stroke:#000000;stroke-width:4;stroke-linecap:square;stroke-linejoin:miter;stroke-miterlimit:4;stroke-dasharray:none;stroke-dashoffset:0;stroke-opacity:1"
     id="path2165" />
  <text
     x="302.75052"
     y="402.31085"
     transform="matrix(0.999991,-4.2337834e-3,4.2337834e-3,0.999991,0,0)"
     style="font-size:37.3229866px;font-style:normal;font-weight:normal;text-align:center;text-anchor:middle;fill:#000000;fill-opacity:1;stroke:none;stroke-width:1px;stroke-linecap:butt;stroke-linejoin:miter;stroke-opacity:1;font-family:Arial"
     id="text5126"
     xml:space="preserve"><tspan
       x="307.92618"
       y="402.31085"
       id="tspan5128">Inner </tspan><tspan
       x="302.75052"
       y="448.9646"
       id="tspan5130">Core</tspan></text>
  <text
     x="215.01227"
     y="340.2334"
     transform="matrix(0.999991,-4.2337834e-3,4.2337834e-3,0.999991,0,0)"
     style="font-size:41.46998215px;font-style:normal;font-weight:normal;fill:#000000;fill-opacity:1;stroke:none;stroke-width:1px;stroke-linecap:butt;stroke-linejoin:miter;stroke-opacity:1;font-family:Arial"
     id="text5132"
     xml:space="preserve"><tspan
       x="215.01227"
       y="340.2334"
       style="font-size:37.3229866px"
       id="tspan5134">Outer Core</tspan></text>
  <path
     d="M -21.857807,233.49173 L 47.380531,165.06111 C 58.328749,159.18451 60.792249,167.59302 53.451325,175.69637 L -20.850323,252.49182 L -21.857807,233.49173 z "
     style="fill:#b0b09c;fill-opacity:1;fill-rule:evenodd;stroke:#000000;stroke-width:2.0734992px;stroke-linecap:butt;stroke-linejoin:miter;stroke-opacity:1"
     id="path5136" />
  <path
     d="M 250.84864,84.839737 L 246.06078,83.03389 L 250.0186,79.790407 L 250.84864,84.839737 z "
     style="fill:#b0b09c;fill-opacity:1;fill-rule:evenodd;stroke:#000000;stroke-width:4.14699841;stroke-linecap:square;stroke-linejoin:miter;stroke-miterlimit:4;stroke-dasharray:none;stroke-dashoffset:0;stroke-opacity:1"
     id="path5148" />
  <path
     d="M 206.53299,92.557432 L 201.50565,91.603233 L 204.84566,87.72653 L 206.53299,92.557432 z "
     style="fill:#b0b09c;fill-opacity:1;fill-rule:evenodd;stroke:#000000;stroke-width:4.14699841;stroke-linecap:square;stroke-linejoin:miter;stroke-miterlimit:4;stroke-dasharray:none;stroke-dashoffset:0;stroke-opacity:1"
     id="path5152" />
  <path
     d="M 164.57113,106.43304 L 159.45741,106.61884 L 161.85335,102.09733 L 164.57113,106.43304 z "
     style="fill:#b0b09c;fill-opacity:1;fill-rule:evenodd;stroke:#000000;stroke-width:4.14699841;stroke-linecap:square;stroke-linejoin:miter;stroke-miterlimit:4;stroke-dasharray:none;stroke-dashoffset:0;stroke-opacity:1"
     id="path5155" />
  <path
     d="M 121.02476,123.23587 L 116.00806,124.24449 L 117.6429,119.39559 L 121.02476,123.23587 z "
     style="fill:#b0b09c;fill-opacity:1;fill-rule:evenodd;stroke:#000000;stroke-width:4.14699841;stroke-linecap:square;stroke-linejoin:miter;stroke-miterlimit:4;stroke-dasharray:none;stroke-dashoffset:0;stroke-opacity:1"
     id="path5158" />
  <path
     d="M 81.129554,146.44086 L 76.367239,148.31302 L 77.127042,143.25267 L 81.129554,146.44086 z "
     style="fill:#b0b09c;fill-opacity:1;fill-rule:evenodd;stroke:#000000;stroke-width:4.14699841;stroke-linecap:square;stroke-linejoin:miter;stroke-miterlimit:4;stroke-dasharray:none;stroke-dashoffset:0;stroke-opacity:1"
     id="path5161" />
  <path
     d="M 63.142673,191.69084 L 59.693327,195.4706 L 58.144616,190.59351 L 63.142673,191.69084 z "
     style="fill:#b0b09c;fill-opacity:1;fill-rule:evenodd;stroke:#000000;stroke-width:4.14699888;stroke-linecap:square;stroke-linejoin:miter;stroke-miterlimit:4;stroke-dasharray:none;stroke-dashoffset:0;stroke-opacity:1"
     id="path5163" />
  <path
     d="M 61.181199,190.14616 C 60.790308,175.23481 66.301738,160.95399 66.301738,160.95399"
     style="fill:none;fill-rule:evenodd;stroke:#000000;stroke-width:2.0734992px;stroke-linecap:butt;stroke-linejoin:miter;stroke-opacity:1"
     id="path5166" />
  <path
     d="M 79.9938,143.52482 C 91.424898,133.97143 99.93397,130.98558 99.93397,130.98558"
     style="fill:none;fill-rule:evenodd;stroke:#000000;stroke-width:2.0734992px;stroke-linecap:butt;stroke-linejoin:miter;stroke-opacity:1"
     id="path5169" />
  <path
     d="M 120.37758,121.23016 C 135.25354,112.48158 145.23679,109.3256 145.23679,109.3256"
     style="fill:none;fill-rule:evenodd;stroke:#000000;stroke-width:2.0734992px;stroke-linecap:butt;stroke-linejoin:miter;stroke-opacity:1"
     id="path5171" />
  <path
     d="M 164.06106,104.16565 C 180.7473,97.21208 186.80584,96.03927 186.80584,96.03927"
     style="fill:none;fill-rule:evenodd;stroke:#000000;stroke-width:2.0734992px;stroke-linecap:butt;stroke-linejoin:miter;stroke-opacity:1"
     id="path5173" />
  <path
     d="M 206.77171,89.563447 C 225.1078,85.224956 232.1524,84.703493 232.1524,84.703493"
     style="fill:none;fill-rule:evenodd;stroke:#000000;stroke-width:2.0734992px;stroke-linecap:butt;stroke-linejoin:miter;stroke-opacity:1"
     id="path5175" />
  <path
     d="M 251.15164,82.164866 C 270.96124,77.492377 275.88308,78.782573 275.88308,78.782573"
     style="fill:none;fill-rule:evenodd;stroke:#000000;stroke-width:2.0734992px;stroke-linecap:butt;stroke-linejoin:miter;stroke-opacity:1"
     id="path5177" />
  <path
     d="M 301.08895,68.679226 C 476.16284,80.699242 537.40631,146.92615 537.39828,145.02972 C 547.82508,167.40891 549.9712,192.75547 550.81366,217.07978 C 550.83096,221.16607 550.73201,223.99079 546.91393,224.96249 C 542.66332,226.04429 539.0014,220.27497 538.35905,217.13251 C 533.36355,201.22506 534.13508,173.99938 528.28226,159.48968 C 409.28488,77.097487 314.28624,89.216475 314.28231,88.288873 C 304.77161,85.383541 299.95159,78.449977 301.08895,68.679226 z "
     style="fill:#b0b09c;fill-opacity:1;fill-rule:evenodd;stroke:#000000;stroke-width:2.0734992px;stroke-linecap:butt;stroke-linejoin:miter;stroke-opacity:1"
     id="path5180" />
  <path
     d="M 616.90353,234.72045 L 553.62665,162.91775 C 542.62907,157.13407 540.23685,165.56313 547.64613,173.60404 L 613.41831,249.80644 L 616.90353,234.72045 z "
     style="fill:#b0b09c;fill-opacity:1;fill-rule:evenodd;stroke:#000000;stroke-width:2.0734992px;stroke-linecap:butt;stroke-linejoin:miter;stroke-opacity:1"
     id="path5182" />
  <path
     d="M 349.48655,84.42213 L 354.25894,82.575807 L 350.2738,79.365954 L 349.48655,84.42213 z "
     style="fill:#b0b09c;fill-opacity:1;fill-rule:evenodd;stroke:#000000;stroke-width:4.14699841;stroke-linecap:square;stroke-linejoin:miter;stroke-miterlimit:4;stroke-dasharray:none;stroke-dashoffset:0;stroke-opacity:1"
     id="path5184" />
  <path
     d="M 393.86597,91.764305 L 398.88505,90.767571 L 395.51233,86.919288 L 393.86597,91.764305 z "
     style="fill:#b0b09c;fill-opacity:1;fill-rule:evenodd;stroke:#000000;stroke-width:4.14699841;stroke-linecap:square;stroke-linejoin:miter;stroke-miterlimit:4;stroke-dasharray:none;stroke-dashoffset:0;stroke-opacity:1"
     id="path5186" />
  <path
     d="M 435.94382,105.28409 L 441.05892,105.42658 L 438.62479,100.92553 L 435.94382,105.28409 z "
     style="fill:#b0b09c;fill-opacity:1;fill-rule:evenodd;stroke:#000000;stroke-width:4.14699841;stroke-linecap:square;stroke-linejoin:miter;stroke-miterlimit:4;stroke-dasharray:none;stroke-dashoffset:0;stroke-opacity:1"
     id="path5188" />
  <path
     d="M 479.63089,121.7176 L 484.65596,122.6837 L 482.98011,117.84882 L 479.63089,121.7176 z "
     style="fill:#b0b09c;fill-opacity:1;fill-rule:evenodd;stroke:#000000;stroke-width:4.14699841;stroke-linecap:square;stroke-linejoin:miter;stroke-miterlimit:4;stroke-dasharray:none;stroke-dashoffset:0;stroke-opacity:1"
     id="path5190" />
  <path
     d="M 519.72115,144.58395 L 524.49914,146.41571 L 523.69652,141.36197 L 519.72115,144.58395 z "
     style="fill:#b0b09c;fill-opacity:1;fill-rule:evenodd;stroke:#000000;stroke-width:4.14699841;stroke-linecap:square;stroke-linejoin:miter;stroke-miterlimit:4;stroke-dasharray:none;stroke-dashoffset:0;stroke-opacity:1"
     id="path5192" />
  <path
     d="M 538.09053,189.67999 L 541.57176,193.43042 L 543.07912,188.54039 L 538.09053,189.67999 z "
     style="fill:#b0b09c;fill-opacity:1;fill-rule:evenodd;stroke:#000000;stroke-width:4.14699888;stroke-linecap:square;stroke-linejoin:miter;stroke-miterlimit:4;stroke-dasharray:none;stroke-dashoffset:0;stroke-opacity:1"
     id="path5194" />
  <path
     d="M 540.03889,188.11877 C 540.30351,173.20464 534.67134,158.971 534.67134,158.971"
     style="fill:none;fill-rule:evenodd;stroke:#000000;stroke-width:2.0734992px;stroke-linecap:butt;stroke-linejoin:miter;stroke-opacity:1"
     id="path5196" />
  <path
     d="M 520.83219,141.65839 C 509.32063,132.20214 500.78657,129.28844 500.78657,129.28844"
     style="fill:none;fill-rule:evenodd;stroke:#000000;stroke-width:2.0734992px;stroke-linecap:butt;stroke-linejoin:miter;stroke-opacity:1"
     id="path5198" />
  <path
     d="M 480.26109,119.70647 C 465.31158,111.08417 455.30194,108.01284 455.30194,108.01284"
     style="fill:none;fill-rule:evenodd;stroke:#000000;stroke-width:2.0734992px;stroke-linecap:butt;stroke-linejoin:miter;stroke-opacity:1"
     id="path5200" />
  <path
     d="M 436.43467,103.01247 C 419.69015,96.20044 413.62187,95.07897 413.62187,95.07897"
     style="fill:none;fill-rule:evenodd;stroke:#000000;stroke-width:2.0734992px;stroke-linecap:butt;stroke-linejoin:miter;stroke-opacity:1"
     id="path5202" />
  <path
     d="M 393.6019,88.772442 C 375.22973,84.589368 368.18096,84.127573 368.18096,84.127573"
     style="fill:none;fill-rule:evenodd;stroke:#000000;stroke-width:2.0734992px;stroke-linecap:butt;stroke-linejoin:miter;stroke-opacity:1"
     id="path5204" />
  <path
     d="M 349.1609,81.749913 C 329.31245,77.245329 324.40171,78.577154 324.40171,78.577154"
     style="fill:none;fill-rule:evenodd;stroke:#000000;stroke-width:2.0734992px;stroke-linecap:butt;stroke-linejoin:miter;stroke-opacity:1"
     id="path5206" />
  <path
     d="M 45.943135,238.99265 L 44.995161,244.02116 L 41.114325,240.68595 L 45.943135,238.99265 z "
     style="fill:#0000ff;fill-opacity:1;fill-rule:evenodd;stroke:#df3f3b;stroke-width:4.14699888;stroke-linecap:square;stroke-linejoin:miter;stroke-miterlimit:4;stroke-dasharray:none;stroke-dashoffset:0;stroke-opacity:1"
     id="path5211" />
  <path
     d="M 79.702271,293.86763 L 79.654561,298.9845 L 75.24708,296.38477 L 79.702271,293.86763 z "
     style="fill:#0000ff;fill-opacity:1;fill-rule:evenodd;stroke:#df3f3b;stroke-width:4.14699888;stroke-linecap:square;stroke-linejoin:miter;stroke-miterlimit:4;stroke-dasharray:none;stroke-dashoffset:0;stroke-opacity:1"
     id="path5213" />
  <path
     d="M 100.1969,349.80697 L 97.017608,353.81655 L 95.134842,349.05843 L 100.1969,349.80697 z "
     style="fill:#0000ff;fill-opacity:1;fill-rule:evenodd;stroke:#df3f3b;stroke-width:4.14699841;stroke-linecap:square;stroke-linejoin:miter;stroke-miterlimit:4;stroke-dasharray:none;stroke-dashoffset:0;stroke-opacity:1"
     id="path5215" />
  <path
     d="M 77.233947,402.78735 L 73.710683,406.49831 L 72.258518,401.59161 L 77.233947,402.78735 z "
     style="fill:#0000ff;fill-opacity:1;fill-rule:evenodd;stroke:#df3f3b;stroke-width:4.14699841;stroke-linecap:square;stroke-linejoin:miter;stroke-miterlimit:4;stroke-dasharray:none;stroke-dashoffset:0;stroke-opacity:1"
     id="path5217" />
  <path
     d="M 43.864991,241.84145 C 39.466831,209.41198 11.68696,228.21182 11.68696,228.21182"
     style="fill:none;fill-rule:evenodd;stroke:#df3f3b;stroke-width:2.0734992px;stroke-linecap:butt;stroke-linejoin:miter;stroke-opacity:1"
     id="path5221" />
  <path
     d="M 76.901583,295.21 C 52.927684,270.97669 58.950396,270.25589 58.950396,270.25589"
     style="fill:none;fill-rule:evenodd;stroke:#df3f3b;stroke-width:2.0734992px;stroke-linecap:butt;stroke-linejoin:miter;stroke-opacity:1"
     id="path5224" />
  <path
     d="M 97.9961,350.9749 C 104.60222,323.83098 91.795787,309.74783 91.795787,309.74783"
     style="fill:none;fill-rule:evenodd;stroke:#df3f3b;stroke-width:2.0734992px;stroke-linecap:butt;stroke-linejoin:miter;stroke-opacity:1"
     id="path5226" />
  <path
     d="M 74.808531,402.98736 C 77.26365,380.72797 91.582485,368.84759 91.582485,368.84759"
     style="fill:none;fill-rule:evenodd;stroke:#df3f3b;stroke-width:2.0734992px;stroke-linecap:butt;stroke-linejoin:miter;stroke-opacity:1"
     id="path5228" />
  <path
     d="M 62.222495,454.2637 C 60.949894,427.38489 66.805003,428.51485 66.805003,428.51485"
     style="fill:none;fill-rule:evenodd;stroke:#df3f3b;stroke-width:2.0734992px;stroke-linecap:butt;stroke-linejoin:miter;stroke-opacity:1"
     id="path5230" />
  <path
     d="M 85.293515,228.23287 L 84.345541,233.26138 L 80.464705,229.92617 L 85.293515,228.23287 z "
     style="fill:#0000ff;fill-opacity:1;fill-rule:evenodd;stroke:#df3f3b;stroke-width:4.14699888;stroke-linecap:square;stroke-linejoin:miter;stroke-miterlimit:4;stroke-dasharray:none;stroke-dashoffset:0;stroke-opacity:1"
     id="path5268" />
  <path
     d="M 92.253243,172.89904 L 88.183037,176.00034 L 87.532324,170.9248 L 92.253243,172.89904 z "
     style="fill:#0000ff;fill-opacity:1;fill-rule:evenodd;stroke:#df3f3b;stroke-width:4.14699841;stroke-linecap:square;stroke-linejoin:miter;stroke-miterlimit:4;stroke-dasharray:none;stroke-dashoffset:0;stroke-opacity:1"
     id="path5270" />
  <path
     d="M 128.84022,138.86983 L 123.72663,138.68061 L 126.44728,134.34672 L 128.84022,138.86983 z "
     style="fill:#0000ff;fill-opacity:1;fill-rule:evenodd;stroke:#df3f3b;stroke-width:4.14699888;stroke-linecap:square;stroke-linejoin:miter;stroke-miterlimit:4;stroke-dasharray:none;stroke-dashoffset:0;stroke-opacity:1"
     id="path5272" />
  <path
     d="M 193.05804,114.80723 L 188.32111,112.87173 L 192.36575,109.73717 L 193.05804,114.80723 z "
     style="fill:#0000ff;fill-opacity:1;fill-rule:evenodd;stroke:#df3f3b;stroke-width:4.14699888;stroke-linecap:square;stroke-linejoin:miter;stroke-miterlimit:4;stroke-dasharray:none;stroke-dashoffset:0;stroke-opacity:1"
     id="path5275" />
  <path
     d="M 243.26438,111.57064 L 238.32865,110.22039 L 241.96584,106.62104 L 243.26438,111.57064 z "
     style="fill:#0000ff;fill-opacity:1;fill-rule:evenodd;stroke:#df3f3b;stroke-width:4.14699936;stroke-linecap:square;stroke-linejoin:miter;stroke-miterlimit:4;stroke-dasharray:none;stroke-dashoffset:0;stroke-opacity:1"
     id="path5277" />
  <path
     d="M 258.72502,100.72448 L 253.87729,99.08612 L 257.72,95.70705 L 258.72502,100.72448 z "
     style="fill:#0000ff;fill-opacity:1;fill-rule:evenodd;stroke:#df3f3b;stroke-width:4.14699888;stroke-linecap:square;stroke-linejoin:miter;stroke-miterlimit:4;stroke-dasharray:none;stroke-dashoffset:0;stroke-opacity:1"
     id="path5279" />
  <path
     d="M 302.92408,142.63091 L 297.81049,142.44169 L 300.53114,138.1078 L 302.92408,142.63091 z "
     style="fill:#0000ff;fill-opacity:1;fill-rule:evenodd;stroke:#df3f3b;stroke-width:4.14699888;stroke-linecap:square;stroke-linejoin:miter;stroke-miterlimit:4;stroke-dasharray:none;stroke-dashoffset:0;stroke-opacity:1"
     id="path5281" />
  <path
     d="M 285.91122,220.0527 L 281.21543,218.01943 L 285.32417,214.96939 L 285.91122,220.0527 z "
     style="fill:#0000ff;fill-opacity:1;fill-rule:evenodd;stroke:#df3f3b;stroke-width:4.14699888;stroke-linecap:square;stroke-linejoin:miter;stroke-miterlimit:4;stroke-dasharray:none;stroke-dashoffset:0;stroke-opacity:1"
     id="path5283" />
  <path
     d="M 215.68457,270.011 L 213.63424,265.32264 L 218.71964,265.89117 L 215.68457,270.011 z "
     style="fill:#0000ff;fill-opacity:1;fill-rule:evenodd;stroke:#df3f3b;stroke-width:4.14699888;stroke-linecap:square;stroke-linejoin:miter;stroke-miterlimit:4;stroke-dasharray:none;stroke-dashoffset:0;stroke-opacity:1"
     id="path5285" />
  <path
     d="M 139.9884,278.51219 L 140.03759,273.39534 L 144.44432,275.99634 L 139.9884,278.51219 z "
     style="fill:#0000ff;fill-opacity:1;fill-rule:evenodd;stroke:#df3f3b;stroke-width:4.14699936;stroke-linecap:square;stroke-linejoin:miter;stroke-miterlimit:4;stroke-dasharray:none;stroke-dashoffset:0;stroke-opacity:1"
     id="path5287" />
  <path
     d="M 82.880333,229.3648 C 69.097811,203.69776 81.78552,189.73842 81.78552,189.73842"
     style="fill:none;fill-rule:evenodd;stroke:#df3f3b;stroke-width:2.0734992px;stroke-linecap:butt;stroke-linejoin:miter;stroke-opacity:1"
     id="path5291" />
  <path
     d="M 89.586729,171.16458 C 100.17293,153.50599 114.04199,144.87214 114.04199,144.87214"
     style="fill:none;fill-rule:evenodd;stroke:#df3f3b;stroke-width:2.0734992px;stroke-linecap:butt;stroke-linejoin:miter;stroke-opacity:1"
     id="path5293" />
  <path
     d="M 127.21774,136.70475 C 151.03955,125.01588 170.01213,117.51923 170.01213,117.51923"
     style="fill:none;fill-rule:evenodd;stroke:#df3f3b;stroke-width:2.0734992px;stroke-linecap:butt;stroke-linejoin:miter;stroke-opacity:1"
     id="path5295" />
  <path
     d="M 192.93244,111.85994 C 207.04895,106.93321 222.09936,103.62485 222.09936,103.62485"
     style="fill:none;fill-rule:evenodd;stroke:#df3f3b;stroke-width:2.0734992px;stroke-linecap:butt;stroke-linejoin:miter;stroke-opacity:1"
     id="path5297" />
  <path
     d="M 242.978,108.40342 C 277.84364,102.90813 284.55794,132.04132 284.56339,132.09865"
     style="fill:none;fill-rule:evenodd;stroke:#df3f3b;stroke-width:2.0734992px;stroke-linecap:butt;stroke-linejoin:miter;stroke-opacity:1"
     id="path5299" />
  <path
     d="M 259.15775,98.13746 C 289.75045,91.84428 295.98538,121.36294 295.64452,121.85429"
     style="fill:none;fill-rule:evenodd;stroke:#df3f3b;stroke-width:2.0734992px;stroke-linecap:butt;stroke-linejoin:miter;stroke-opacity:1"
     id="path5301" />
  <path
     d="M 300.60461,143.85051 L 300.8195,194.60509"
     style="fill:none;fill-rule:evenodd;stroke:#df3f3b;stroke-width:2.0734992px;stroke-linecap:butt;stroke-linejoin:miter;stroke-opacity:1"
     id="path5303" />
  <path
     d="M 283.54279,219.47658 C 264.08154,246.76091 231.67971,257.74315 232.95304,258.62647"
     style="fill:none;fill-rule:evenodd;stroke:#df3f3b;stroke-width:2.0734992px;stroke-linecap:butt;stroke-linejoin:miter;stroke-opacity:1"
     id="path5305" />
  <path
     d="M 214.67966,267.04722 C 180.8943,279.24177 163.73061,276.0698 163.73061,276.0698"
     style="fill:none;fill-rule:evenodd;stroke:#df3f3b;stroke-width:2.0734992px;stroke-linecap:butt;stroke-linejoin:miter;stroke-opacity:1"
     id="path5307" />
  <path
     d="M 140.55403,275.93617 C 120.624,276.2523 118.0423,268.61514 118.0423,268.61514"
     style="fill:none;fill-rule:evenodd;stroke:#df3f3b;stroke-width:2.0734992px;stroke-linecap:butt;stroke-linejoin:miter;stroke-opacity:1"
     id="path5309" />
  <path
     d="M 335.90882,97.24088 L 340.86362,98.51942 L 337.27899,102.17113 L 335.90882,97.24088 z "
     style="fill:#0000ff;fill-opacity:1;fill-rule:evenodd;stroke:#df3f3b;stroke-width:4.14699888;stroke-linecap:square;stroke-linejoin:miter;stroke-miterlimit:4;stroke-dasharray:none;stroke-dashoffset:0;stroke-opacity:1"
     id="path5312" />
  <path
     d="M 350.34823,106.17608 L 355.30303,107.45462 L 351.7184,111.10633 L 350.34823,106.17608 z "
     style="fill:#0000ff;fill-opacity:1;fill-rule:evenodd;stroke:#df3f3b;stroke-width:4.14699888;stroke-linecap:square;stroke-linejoin:miter;stroke-miterlimit:4;stroke-dasharray:none;stroke-dashoffset:0;stroke-opacity:1"
     id="path5314" />
  <path
     d="M 412.51763,112.03583 L 415.20349,116.39138 L 410.08855,116.53964 L 412.51763,112.03583 z "
     style="fill:#0000ff;fill-opacity:1;fill-rule:evenodd;stroke:#df3f3b;stroke-width:4.14699936;stroke-linecap:square;stroke-linejoin:miter;stroke-miterlimit:4;stroke-dasharray:none;stroke-dashoffset:0;stroke-opacity:1"
     id="path5316" />
  <path
     d="M 477.77393,139.69484 L 480.45979,144.05039 L 475.34485,144.19865 L 477.77393,139.69484 z "
     style="fill:#0000ff;fill-opacity:1;fill-rule:evenodd;stroke:#df3f3b;stroke-width:4.14699936;stroke-linecap:square;stroke-linejoin:miter;stroke-miterlimit:4;stroke-dasharray:none;stroke-dashoffset:0;stroke-opacity:1"
     id="path5318" />
  <path
     d="M 519.60422,181.61896 L 524.25355,179.48158 L 523.77993,184.57669 L 519.60422,181.61896 z "
     style="fill:#0000ff;fill-opacity:1;fill-rule:evenodd;stroke:#df3f3b;stroke-width:4.14699888;stroke-linecap:square;stroke-linejoin:miter;stroke-miterlimit:4;stroke-dasharray:none;stroke-dashoffset:0;stroke-opacity:1"
     id="path5320" />
  <path
     d="M 523.41667,242.9894 L 527.96142,245.34096 L 523.65255,248.10106 L 523.41667,242.9894 z "
     style="fill:#0000ff;fill-opacity:1;fill-rule:evenodd;stroke:#df3f3b;stroke-width:4.14699888;stroke-linecap:square;stroke-linejoin:miter;stroke-miterlimit:4;stroke-dasharray:none;stroke-dashoffset:0;stroke-opacity:1"
     id="path5322" />
  <path
     d="M 549.21026,257.02451 L 554.14915,258.36319 L 550.5204,261.97105 L 549.21026,257.02451 z "
     style="fill:#0000ff;fill-opacity:1;fill-rule:evenodd;stroke:#df3f3b;stroke-width:4.14699888;stroke-linecap:square;stroke-linejoin:miter;stroke-miterlimit:4;stroke-dasharray:none;stroke-dashoffset:0;stroke-opacity:1"
     id="path5324" />
  <path
     d="M 524.99905,296.48177 L 529.06329,299.59089 L 524.33862,301.55607 L 524.99905,296.48177 z "
     style="fill:#0000ff;fill-opacity:1;fill-rule:evenodd;stroke:#df3f3b;stroke-width:4.14699888;stroke-linecap:square;stroke-linejoin:miter;stroke-miterlimit:4;stroke-dasharray:none;stroke-dashoffset:0;stroke-opacity:1"
     id="path5328" />
  <path
     d="M 469.77608,284.69367 L 472.96091,280.68849 L 474.8371,285.4492 L 469.77608,284.69367 z "
     style="fill:#0000ff;fill-opacity:1;fill-rule:evenodd;stroke:#df3f3b;stroke-width:4.14699888;stroke-linecap:square;stroke-linejoin:miter;stroke-miterlimit:4;stroke-dasharray:none;stroke-dashoffset:0;stroke-opacity:1"
     id="path5330" />
  <path
     d="M 503.90432,349.33773 L 508.41647,346.9242 L 508.25059,352.03859 L 503.90432,349.33773 z "
     style="fill:#0000ff;fill-opacity:1;fill-rule:evenodd;stroke:#df3f3b;stroke-width:4.14699888;stroke-linecap:square;stroke-linejoin:miter;stroke-miterlimit:4;stroke-dasharray:none;stroke-dashoffset:0;stroke-opacity:1"
     id="path5332" />
  <path
     d="M 526.22927,403.6736 L 530.99108,401.80013 L 530.23266,406.86069 L 526.22927,403.6736 z "
     style="fill:#0000ff;fill-opacity:1;fill-rule:evenodd;stroke:#df3f3b;stroke-width:4.14699888;stroke-linecap:square;stroke-linejoin:miter;stroke-miterlimit:4;stroke-dasharray:none;stroke-dashoffset:0;stroke-opacity:1"
     id="path5334" />
  <path
     d="M 396.94054,263.79333 L 393.92014,267.92393 L 391.85313,263.24291 L 396.94054,263.79333 z "
     style="fill:#0000ff;fill-opacity:1;fill-rule:evenodd;stroke:#df3f3b;stroke-width:4.14699936;stroke-linecap:square;stroke-linejoin:miter;stroke-miterlimit:4;stroke-dasharray:none;stroke-dashoffset:0;stroke-opacity:1"
     id="path5338" />
  <path
     d="M 321.69487,214.43494 L 325.76421,217.53738 L 321.04276,219.51032 L 321.69487,214.43494 z "
     style="fill:#0000ff;fill-opacity:1;fill-rule:evenodd;stroke:#df3f3b;stroke-width:4.14699888;stroke-linecap:square;stroke-linejoin:miter;stroke-miterlimit:4;stroke-dasharray:none;stroke-dashoffset:0;stroke-opacity:1"
     id="path5340" />
  <path
     d="M 337.96658,100.58493 C 311.4735,93.775645 306.05301,121.18921 306.9986,121.34269"
     style="fill:none;fill-rule:evenodd;stroke:#df3f3b;stroke-width:2.0734992px;stroke-linecap:butt;stroke-linejoin:miter;stroke-opacity:1"
     id="path5342" />
  <path
     d="M 351.67453,108.63849 C 318.23341,105.79119 311.74253,130.91059 314.22425,131.04603"
     style="fill:none;fill-rule:evenodd;stroke:#df3f3b;stroke-width:2.0734992px;stroke-linecap:butt;stroke-linejoin:miter;stroke-opacity:1"
     id="path5344" />
  <path
     d="M 411.03058,114.64472 C 387.43263,107.30096 368.36485,105.4263 368.34723,105.32326"
     style="fill:none;fill-rule:evenodd;stroke:#df3f3b;stroke-width:2.0734992px;stroke-linecap:butt;stroke-linejoin:miter;stroke-opacity:1"
     id="path5346" />
  <path
     d="M 477.43055,142.17481 C 445.61011,125.80984 429.13317,120.61653 429.13307,120.59384"
     style="fill:none;fill-rule:evenodd;stroke:#df3f3b;stroke-width:2.0734992px;stroke-linecap:butt;stroke-linejoin:miter;stroke-opacity:1"
     id="path5348" />
  <path
     d="M 522.08962,180.22617 C 510.87898,159.87874 493.69077,150.91286 493.69077,150.91286"
     style="fill:none;fill-rule:evenodd;stroke:#df3f3b;stroke-width:2.0734992px;stroke-linecap:butt;stroke-linejoin:miter;stroke-opacity:1"
     id="path5350" />
  <path
     d="M 525.83676,244.17613 C 538.27996,227.20496 530.95915,195.02128 530.95915,195.02128"
     style="fill:none;fill-rule:evenodd;stroke:#df3f3b;stroke-width:2.0734992px;stroke-linecap:butt;stroke-linejoin:miter;stroke-opacity:1"
     id="path5352" />
  <path
     d="M 551.8533,258.20335 C 547.947,211.40433 587.43776,233.02258 587.43776,233.02258"
     style="fill:none;fill-rule:evenodd;stroke:#df3f3b;stroke-width:2.0734992px;stroke-linecap:butt;stroke-linejoin:miter;stroke-opacity:1"
     id="path5354" />
  <path
     d="M 526.76361,298.86761 C 536.09517,289.99904 548.71167,272.284 549.13207,272.35225"
     style="fill:none;fill-rule:evenodd;stroke:#df3f3b;stroke-width:2.0734992px;stroke-linecap:butt;stroke-linejoin:miter;stroke-opacity:1"
     id="path5358" />
  <path
     d="M 472.93243,284.0311 C 504.17215,272.71824 516.16293,258.36848 516.16385,258.58621"
     style="fill:none;fill-rule:evenodd;stroke:#df3f3b;stroke-width:2.0734992px;stroke-linecap:butt;stroke-linejoin:miter;stroke-opacity:1"
     id="path5360" />
  <path
     d="M 395.8885,266.64796 C 424.78371,278.50946 446.57959,282.40468 446.47903,282.42524"
     style="fill:none;fill-rule:evenodd;stroke:#df3f3b;stroke-width:2.0734992px;stroke-linecap:butt;stroke-linejoin:miter;stroke-opacity:1"
     id="path5362" />
  <path
     d="M 325.1264,220.03212 C 337.25916,239.21684 372.78946,255.9849 372.78946,255.9849"
     style="fill:none;fill-rule:evenodd;stroke:#df3f3b;stroke-width:2.0734992px;stroke-linecap:butt;stroke-linejoin:miter;stroke-opacity:1"
     id="path5364" />
  <path
     d="M 506.11161,347.6247 C 494.45638,323.18803 511.49153,314.57853 511.3017,314.461"
     style="fill:none;fill-rule:evenodd;stroke:#df3f3b;stroke-width:2.0734992px;stroke-linecap:butt;stroke-linejoin:miter;stroke-opacity:1"
     id="path5366" />
  <path
     d="M 529.05331,401.75944 C 515.65952,374.46844 511.6943,366.83714 511.7552,366.83689"
     style="fill:none;fill-rule:evenodd;stroke:#df3f3b;stroke-width:2.0734992px;stroke-linecap:butt;stroke-linejoin:miter;stroke-opacity:1"
     id="path5368" />
  <path
     d="M 540.63111,454.08823 C 538.12483,435.55802 534.41759,420.97284 534.46513,420.97264"
     style="fill:none;fill-rule:evenodd;stroke:#df3f3b;stroke-width:2.0734992px;stroke-linecap:butt;stroke-linejoin:miter;stroke-opacity:1"
     id="path5370" />
  <text
     x="42.512897"
     y="267.91748"
     transform="matrix(0.999991,-4.2337834e-3,4.2337834e-3,0.999991,0,0)"
     style="font-size:26.95545769px;font-style:normal;font-weight:normal;fill:#000000;fill-opacity:1;stroke:none;stroke-width:1px;stroke-linecap:butt;stroke-linejoin:miter;stroke-opacity:1;font-family:Arial"
     id="text5373"
     xml:space="preserve"><tspan
       x="42.512897"
       y="267.91748"
       id="tspan5375">700 km</tspan></text>
  <text
     x="149.9556"
     y="201.40089"
     transform="matrix(0.999991,-4.2337834e-3,4.2337834e-3,0.999991,0,0)"
     style="font-size:26.95545769px;font-style:normal;font-weight:normal;fill:#000000;fill-opacity:1;stroke:none;stroke-width:1px;stroke-linecap:butt;stroke-linejoin:miter;stroke-opacity:1;font-family:Arial"
     id="text5379"
     xml:space="preserve"><tspan
       x="149.9556"
       y="201.40089"
       id="tspan5381">Mantle</tspan></text>
  <text
     x="375.31622"
     y="-39.188236"
     transform="matrix(0.9005976,0.4346538,-0.4346538,0.9005976,0,0)"
     style="font-size:26.9554882px;font-style:normal;font-weight:normal;fill:#000000;fill-opacity:1;stroke:none;stroke-width:1px;stroke-linecap:butt;stroke-linejoin:miter;stroke-opacity:1;font-family:Arial"
     id="text5383"
     xml:space="preserve"><tspan
       x="375.31622"
       y="-39.188236"
       id="tspan5385">Asthenosphere</tspan></text>
  <text
     x="8.0264645"
     y="73.483414"
     transform="matrix(0.999991,-4.2337836e-3,4.2337836e-3,0.999991,0,0)"
     style="font-size:37.3229866px;font-style:normal;font-weight:normal;fill:#000000;fill-opacity:1;stroke:none;stroke-width:1px;stroke-linecap:butt;stroke-linejoin:miter;stroke-opacity:1;font-family:Arial"
     id="text5389"
     xml:space="preserve"><tspan
       x="8.0264645"
       y="73.483414"
       style="font-size:29.02895546px"
       id="tspan5391">Trench</tspan></text>
  <text
     x="51.255402"
     y="136.12254"
     transform="matrix(0.9367233,-0.3500708,0.3500708,0.9367233,0,0)"
     style="font-size:29.0290184px;font-style:normal;font-weight:normal;fill:#000000;fill-opacity:1;stroke:none;stroke-width:1px;stroke-linecap:butt;stroke-linejoin:miter;stroke-opacity:1;font-family:Arial"
     id="text5393"
     xml:space="preserve"><tspan
       x="51.255402"
       y="136.12254"
       id="tspan5395">&quot;SLAB PULL&quot;</tspan></text>
  <text
     x="261.48676"
     y="26.045324"
     transform="matrix(0.999991,-4.2337836e-3,4.2337836e-3,0.999991,0,0)"
     style="font-size:29.02895546px;font-style:normal;font-weight:normal;fill:#000000;fill-opacity:1;stroke:none;stroke-width:1px;stroke-linecap:butt;stroke-linejoin:miter;stroke-opacity:1;font-family:Arial"
     id="text5397"
     xml:space="preserve"><tspan
       x="261.48676"
       y="26.045324"
       id="tspan5399">Ridge</tspan></text>
  <text
     x="344.08112"
     y="54.004635"
     transform="matrix(0.999991,-4.233784e-3,4.233784e-3,0.999991,0,0)"
     style="font-size:29.02895164px;font-style:normal;font-weight:normal;fill:#000000;fill-opacity:1;stroke:none;stroke-width:1px;stroke-linecap:butt;stroke-linejoin:miter;stroke-opacity:1;font-family:Arial"
     id="text5401"
     xml:space="preserve"><tspan
       x="344.08112"
       y="54.004635"
       id="tspan5403">Lithosphere</tspan></text>
  <text
     x="500.09277"
     y="73.484337"
     transform="matrix(0.999991,-4.233784e-3,4.233784e-3,0.999991,0,0)"
     style="font-size:29.02895164px;font-style:normal;font-weight:normal;fill:#000000;fill-opacity:1;stroke:none;stroke-width:1px;stroke-linecap:butt;stroke-linejoin:miter;stroke-opacity:1;font-family:Arial"
     id="text5405"
     xml:space="preserve"><tspan
       x="500.09277"
       y="73.484337"
       id="tspan5407">Trench</tspan></text>
  <path
     d="M 52.98272,150.37194 L 52.682989,79.577397"
     style="fill:none;fill-rule:evenodd;stroke:#000000;stroke-width:2.0734992px;stroke-linecap:butt;stroke-linejoin:miter;stroke-opacity:1"
     id="path5409" />
  <path
     d="M 300.22313,63.562214 L 300.08436,30.786961"
     style="fill:none;fill-rule:evenodd;stroke:#000000;stroke-width:2.0734992px;stroke-linecap:butt;stroke-linejoin:miter;stroke-opacity:1"
     id="path5411" />
  <path
     d="M 422.06784,94.04527 L 421.92655,60.672404"
     style="fill:none;fill-rule:evenodd;stroke:#000000;stroke-width:2.0734992px;stroke-linecap:butt;stroke-linejoin:miter;stroke-opacity:1"
     id="path5413" />
  <path
     d="M 546.47107,148.2826 L 546.17134,77.488057"
     style="fill:none;fill-rule:evenodd;stroke:#000000;stroke-width:2.0734992px;stroke-linecap:butt;stroke-linejoin:miter;stroke-opacity:1"
     id="path5415" />
</svg>
